<svg xmlns="http://www.w3.org/2000/svg" role="img" viewBox="0 0 24 24" fill="#ffffff" aria-label="Unity">
  <title>Unity</title>
  <path d="m12.9288 4.2939 3.7997 2.1929c.1366.077.1415.2905 0 .3675l-4.515 2.6076a.4192.4192 0 0 1-.4246 0L7.274 6.8543c-.139-.0745-.1415-.293 0-.3675l3.7972-2.193V0L1.3758 5.5977V16.793l3.7177-2.1456v-4.3858c-.0024-.1565.1737-.2615.3102-.179l4.5151 2.6075a.4218.4218 0 0 1 .2123.3676v5.2127c.0025.1565-.1736.2614-.3102.179L5.349 15.4533l-3.7177 2.1456 9.6535 5.5977 9.6534-5.5977-3.7177-2.1456-3.7997 2.1929c-.1342.082-.3127-.0224-.3102-.179V12.232a.4194.4194 0 0 1 .2123-.3675l4.515-2.6075c.1366-.082.3128.0224.3104.179v4.3857l3.7176 2.1457V5.5977L12.929 0Z"/>
</svg>
