<svg viewBox="666.3031813049316 -2.8346360778808593 277.6085726928711 52.913206787109374" preserveAspectRatio="xMidYMid meet" xmlns="http://www.w3.org/2000/svg" fill="none"><g class="outer" transform="translate(0 -37.1435)" data-text="Winston"><g transform="translate(664.03 78.228)"><g transform="translate(14.206578135202564,0)  scale(2.1240289762836233)"><path d="m 0,0 c -0.5374,0,-7.7567,21.43144,-2.1829,21.29896,3.6582,-0.087,9.3531,-18.36225,7.9376,-18.71928,-1.64,-0.41362,-2.9649,18.76346,0.3968,19.1823,5.4548,0.67961,8.3585,-18.52083,6.4823,-22.225" stroke-width="2.2" stroke="#7A828A" fill="none" stroke-linecap="round" stroke-linejoin="round" transform="translate(0,-18.879659677734367)"></path></g><g transform="translate(61.36029742506374,0)  scale(2.1240289762836233)"><path d="m 0,0 c 0,0,-3.5463,8.44516,-0.8268,9.82266,1.946,0.98571,6.5265,-6.29755,6.5484,-6.28385" stroke-width="2.2" stroke="#7A828A" fill="none" stroke-linecap="round" stroke-linejoin="round" transform="translate(0,-10.545289677734388)"></path><path d="m 0,0 c 1.1518,0.46666,0.2199,2.56524,-1.0524,1.89427,-0.8492,-0.44787,0,-2.32121,1.0524,-1.89427 z" stroke-width="2.2" stroke="#7A828A" fill="none" stroke-linecap="round" stroke-linejoin="round" transform="translate(1.862999999999829,-16.576499677734375)"></path></g><g transform="translate(95.66987952993598,0)  scale(2.1240289762836233)"><path d="m 0,0 c -0.2902,3.20807,-1.4556,6.41615,-2.2159,9.62422,0,0,2.7125,-10.84119,6.4823,-9.78958,3.1246,0.87161,-1.9858,9.56574,0.3969,9.72344,2.9159,0.19298,6.0523,-6.31693,6.0523,-6.31693" stroke-width="2.2" stroke="#7A828A" fill="none" stroke-linecap="round" stroke-linejoin="round" transform="translate(0,-10.214559677734371)"></path></g><g transform="translate(136.93196141152816,0)  scale(2.1240289762836233)"><path d="m 0,0 c 0,0,6.9506,-6.74246,4.2003,-6.91224,-3.3467,-0.2066,1.5646,6.80173,1.2568,9.12812,-0.2117,1.59996,-1.9365,2.42777,-3.0428,2.28203,-1.0842,-0.14284,-1.5874,-2.84427,-1.5874,-2.84427" stroke-width="2.2" stroke="#7A828A" fill="none" stroke-linecap="round" stroke-linejoin="round" transform="translate(0,-4.95595967773437)"></path></g><g transform="translate(181.72228970974024,0)  scale(2.1240289762836233)"><path d="m 0,0 c 0.045,3.03736,-5.2182,13.28704,-2.9466,17.25893,1.5437,2.69923,7.2964,-6.17393,7.2964,-6.17393" stroke-width="2.2" stroke="#7A828A" fill="none" stroke-linecap="round" stroke-linejoin="round" transform="translate(0,-18.176369677734385)"></path><path d="m 0,0 c 3.7321,0.85361,8.1331,-0.66879,12.2075,0.0468" stroke-width="2.2" stroke="#7A828A" fill="none" stroke-linecap="round" stroke-linejoin="round" transform="translate(-6.735200000000077,-14.15396967773438)"></path></g><g transform="translate(212.94520835126886,0)  scale(2.1240289762836233)"><path d="m 0,0 c -2.0537,1.99241,-2.9475,8.72618,0.1653,8.69817,6.7156,-0.0604,5.6026,-13.87708,0.1321,-8.92968,-1.0977,0.99276,-0.7735,2.95051,-0.048,3.75514,2.147,2.38124,9.9255,-1.5379,9.8041,-3.22598" stroke-width="2.2" stroke="#7A828A" fill="none" stroke-linecap="round" stroke-linejoin="round" transform="translate(0,-9.156219677734384)"></path></g><g transform="translate(254.28652762295619,0)  scale(2.1240289762836233)"><path d="m 0,0 c -0.2902,3.20807,-1.4556,6.41615,-2.2159,9.62422,0,0,2.7125,-10.84119,6.4823,-9.78958,3.1246,0.87161,-1.9858,9.56574,0.3969,9.72344,2.9159,0.19298,6.0523,-6.31693,6.0523,-6.31693" stroke-width="2.2" stroke="#7A828A" fill="none" stroke-linecap="round" stroke-linejoin="round" transform="translate(0,-10.214559677734371)"></path></g></g></g></svg>
